PathFileType	4	(X/Y/Z)	C:\Users\Biomechanik\SynologyDrive\AlexP\Athlete_03\Athlete_3_25_03_31\Squat_bar_02\marker_experimental.trc
DataRate	CameraRate	NumFrames	NumMarkers	Units	OrigDataRate	OrigDataStartFrame	OrigNumFrames
200.000000	200.000000	4	55	mm	200.000000	130	522
Frame#	Time	BL			BR			GLAB			RFHD			LFHD			C7			T6			SPINMOL			SPINM2			SPINM3			T12			BELTOL			BELT2			BELT3			SACROL			SACR2			SACR3			LTHOL			LTH2			LTH3			LSHAOL			LSHA2			LSHA3			LHEE			LTOE			LM5			RTHOL			RTH2			RTH3			RSHAOL			RSHA2			RSHA3			RHEE			RTOE			RM5			STRN			XIPH			LACR			LUAOL			LUA2			LUA3			LLAOL			LLA2			LLA3			LWRR			LWRU			RACR			RUAOL			RUA2			RUA3			RLAOL			RLA2			RLA3			RWRR			RWRU			
		X1	Y1	Z1	X2	Y2	Z2	X3	Y3	Z3	X4	Y4	Z4	X5	Y5	Z5	X6	Y6	Z6	X7	Y7	Z7	X8	Y8	Z8	X9	Y9	Z9	X10	Y10	Z10	X11	Y11	Z11	X12	Y12	Z12	X13	Y13	Z13	X14	Y14	Z14	X15	Y15	Z15	X16	Y16	Z16	X17	Y17	Z17	X18	Y18	Z18	X19	Y19	Z19	X20	Y20	Z20	X21	Y21	Z21	X22	Y22	Z22	X23	Y23	Z23	X24	Y24	Z24	X25	Y25	Z25	X26	Y26	Z26	X27	Y27	Z27	X28	Y28	Z28	X29	Y29	Z29	X30	Y30	Z30	X31	Y31	Z31	X32	Y32	Z32	X33	Y33	Z33	X34	Y34	Z34	X35	Y35	Z35	X36	Y36	Z36	X37	Y37	Z37	X38	Y38	Z38	X39	Y39	Z39	X40	Y40	Z40	X41	Y41	Z41	X42	Y42	Z42	X43	Y43	Z43	X44	Y44	Z44	X45	Y45	Z45	X46	Y46	Z46	X47	Y47	Z47	X48	Y48	Z48	X49	Y49	Z49	X50	Y50	Z50	X51	Y51	Z51	X52	Y52	Z52	X53	Y53	Z53	X54	Y54	Z54	X55	Y55	Z55	

131	0.65	199.3208160400391	1152.831665039063	-2235.816162109375	223.7250366210938	1188.905029296875	-215.3662872314452	509.3053588867188	1345.694091796875	-1188.992065429688	458.9453735351562	1372.3759765625	-1126.780029296875	467.1385192871094	1370.014892578125	-1262.027099609375	267.460693359375	1233.93017578125	-1196.141723632812	149.0208892822266	1110.474609375	-1204.66162109375	127.3192367553711	1085.034912109375	-1224.677368164062	118.6806182861328	1078.431396484375	-1175.71337890625	97.39307403564453	1027.298217773438	-1212.170654296875	73.44052886962891	967.6286621093751	-1212.582153320312	37.26312255859375	948.7490844726564	-1227.5107421875	35.84504699707031	945.5425415039064	-1176.815307617188	5.114887237548828	894.7871704101564	-1206.200439453125	-37.39727020263672	800.9365844726564	-1232.005859375	-36.7851676940918	797.7192382812501	-1180.52880859375	-53.25257110595703	740.4824829101564	-1209.31494140625	126.7089233398438	564.0374755859376	-1485.6298828125	139.5504760742188	486.2319946289064	-1479.296875	166.5843353271484	521.0226440429689	-1503.5908203125	204.7969970703125	315.6040649414064	-1587.042724609375	151.1343078613281	264.4848937988282	-1557.693115234375	195.7094116210938	254.6441802978516	-1579.714477539062	108.9518661499023	70.05859375000009	-1468.652099609375	314.8687438964844	50.21863555908212	-1537.341674804688	239.8106842041016	26.19382858276377	-1619.1767578125	101.8778839111328	559.5326538085939	-933.8657836914062	162.8598480224609	567.200927734375	-882.7761840820312	147.5299682617188	526.4288330078125	-906.7601318359375	176.5139770507812	330.5436706542969	-831.682861328125	188.3542938232422	253.1090850830079	-823.451171875	152.6791076660156	275.6482238769532	-850.0269165039062	89.34077453613281	65.06529998779303	-964.70556640625	280.5548095703125	47.40056610107428	-870.918212890625	191.8712921142578	38.08372879028325	-799.3218383789062	385.8790283203125	1077.453247070312	-1202.221801757812	349.6061096191406	934.1112670898439	-1199.274169921875	303.0762939453125	1187.256958007812	-1367.111083984375	183.1796569824219	1076.730346679688	-1458.132202148438	132.6718444824219	1036.948852539062	-1445.402587890625	162.3090667724609	1020.332580566406	-1483.49755859375	130.2163238525391	954.0585327148439	-1551.27197265625	200.5621490478516	945.5606079101564	-1587.31884765625	174.3158264160156	987.8134155273439	-1577.642700195312	235.2960205078125	1063.636352539062	-1618.763549804688	247.6240234375	1093.211181640625	-1546.823974609375	314.8550720214844	1179.674682617188	-1036.60400390625	198.5616455078125	1071.056274414062	-951.2856445312499	172.4356536865234	1017.672668457031	-923.1036987304686	151.6865997314453	1029.15673828125	-969.6728515624999	169.5521850585938	948.617919921875	-837.9277954101561	171.6526794433594	1027.847778320312	-826.8851928710936	208.110107421875	993.0695190429688	-818.0013427734374	242.4243927001953	1079.47021484375	-800.3226928710936	263.70361328125	1110.722534179688	-870.7839355468749	
132	0.655	199.8684387207031	1149.489990234375	-2235.77685546875	224.2619323730469	1185.552001953125	-215.3235473632812	509.9344787597656	1342.152221679688	-1189.034301757812	459.5760192871094	1368.828125	-1126.826782226562	467.7417907714844	1366.435546875	-1262.067504882812	268.0968933105469	1230.532836914062	-1196.093872070312	149.4248962402344	1107.39453125	-1204.620727539062	127.7083053588867	1082.061279296875	-1224.6220703125	119.0503387451172	1075.460571289062	-1175.66015625	97.56109619140625	1024.410278320312	-1212.134643554688	73.47977447509766	964.8690795898439	-1212.52734375	37.23480987548828	946.1724853515626	-1227.4658203125	35.8072395324707	942.9471435546876	-1176.761840820312	4.903858184814453	892.3039550781251	-1206.16845703125	-37.94615936279297	798.3306274414064	-1232.03466796875	-37.34729385375977	795.0773925781251	-1180.566040039062	-53.85150527954102	737.8661499023439	-1209.391357421875	126.7419357299805	562.1994018554689	-1486.09814453125	140.1132202148438	484.4647827148439	-1479.978759765625	166.8977508544922	519.5038452148439	-1504.205444335938	205.3505706787109	315.2876281738282	-1587.635131835938	151.5882263183594	264.3495178222657	-1558.152954101562	196.1272277832031	254.3665924072266	-1580.177978515625	108.9909286499023	70.07834625244149	-1468.617431640625	314.8896789550781	50.20822525024423	-1537.336669921875	239.8062591552734	26.19211959838877	-1619.180419921875	101.9563064575195	557.5253906250001	-933.5245971679688	162.8373870849609	565.777587890625	-882.4039916992188	147.7945098876953	524.8143920898438	-906.251220703125	177.1306304931641	330.2001953125001	-831.1217041015625	188.7857818603516	252.7288665771485	-823.0192260742188	153.1717834472656	275.4082031250001	-849.5546875	89.38393402099609	65.08647155761724	-964.7210693359375	280.5648498535156	47.37938690185553	-870.935546875	191.8696899414062	38.08510589599614	-799.3193359375	386.2328491210938	1073.837280273438	-1202.1650390625	349.6716003417969	930.5545654296876	-1199.216064453125	303.6748962402344	1183.794921875	-1367.09130859375	183.6799468994141	1073.404052734375	-1458.131591796875	133.1641235351562	1033.666381835938	-1445.39453125	162.7243957519531	1017.043090820313	-1483.532104492188	130.6839904785156	950.7054443359376	-1551.269775390625	201.0711059570312	942.1867065429689	-1587.236572265625	174.8187408447266	984.4448852539064	-1577.603515625	235.8286895751953	1060.27587890625	-1618.673828125	248.1243438720703	1089.840209960938	-1546.722412109375	315.4284362792969	1176.180908203125	-1036.585205078125	198.9551239013672	1067.779418945312	-951.2256469726561	172.7376251220703	1014.427001953125	-923.0477905273436	152.0063781738281	1025.9541015625	-969.6179809570311	169.7438354492188	945.3599853515625	-837.8947143554686	171.9536285400391	1024.576416015625	-826.8511962890624	208.3834838867188	989.7483520507812	-817.9782104492186	242.8324127197266	1076.092895507812	-800.3043212890624	264.1412658691406	1107.322021484375	-870.7692871093749	
133	0.66	200.4172973632812	1146.157592773438	-2235.73583984375	224.8103332519531	1182.198974609375	-215.279312133789	510.5603332519531	1338.60986328125	-1189.080078125	460.2039184570312	1365.279296875	-1126.87646484375	468.3401489257812	1362.8544921875	-1262.1103515625	268.7322082519531	1227.13671875	-1196.046875	149.8251647949219	1104.31494140625	-1204.581787109375	128.0964050292969	1079.085083007812	-1224.571411132812	119.4153823852539	1072.485717773438	-1175.609375	97.72652435302734	1021.520812988281	-1212.103637695312	73.51976013183594	962.1051635742189	-1212.4765625	37.21092987060547	943.5901489257814	-1227.42724609375	35.76809310913086	940.3478393554689	-1176.7197265625	4.696146011352539	889.8148803710939	-1206.146118164062	-38.48780822753906	795.7173461914064	-1232.068725585938	-37.90089797973633	792.4324951171876	-1180.607543945312	-54.43935012817383	735.2433471679689	-1209.469116210938	126.781623840332	560.3718261718751	-1486.556762695312	140.6673583984375	482.7068176269532	-1480.660522460938	167.2107238769531	517.9927978515626	-1504.809448242188	205.8952941894531	314.9768676757814	-1588.210205078125	152.0357513427734	264.2190856933595	-1558.594970703125	196.5370788574219	254.094940185547	-1580.626708984375	109.0294876098633	70.09763336181649	-1468.582153320312	314.9100341796875	50.19801712036142	-1537.330444335938	239.8025054931641	26.18956565856944	-1619.18408203125	102.038703918457	555.5328369140626	-933.178955078125	162.8227691650391	564.3623657226562	-882.037109375	148.0605163574219	523.2118530273438	-905.743896484375	177.7427673339844	329.8598937988282	-830.5706787109375	189.2138671875	252.3540496826172	-822.5960083007812	153.6600036621094	275.1720275878907	-849.087890625	89.42581939697266	65.10629272460943	-964.7364501953125	280.5739440917969	47.35881423950201	-870.9540405273438	191.8676300048828	38.08616638183599	-799.316650390625	386.5838623046875	1070.21875	-1202.112915039062	349.7350463867188	926.9967041015626	-1199.166748046875	304.2739868164062	1180.336547851562	-1367.07373046875	184.1851959228516	1070.078002929688	-1458.138671875	133.6683502197266	1030.377807617188	-1445.394287109375	163.1508178710938	1013.753479003906	-1483.575927734375	131.1762542724609	947.3453979492189	-1551.2783203125	201.6099243164062	938.8149414062501	-1587.15771484375	175.345458984375	981.0744018554689	-1577.570068359375	236.376953125	1056.923583984375	-1618.58251953125	248.6336364746094	1086.475341796875	-1546.617553710938	316.007568359375	1172.67822265625	-1036.562744140625	199.3531951904297	1064.500244140625	-951.1691894531249	173.0330505371094	1011.183166503906	-922.9921874999999	152.3210601806641	1022.755676269531	-969.5654907226561	169.9243316650391	942.1033935546875	-837.8656005859374	172.2523498535156	1021.305358886719	-826.8186035156249	208.6497650146484	986.4248657226562	-817.9586181640624	243.2386016845703	1072.710083007812	-800.2882080078124	264.5825500488281	1103.915405273438	-870.7576904296874	
134	0.665	200.9675750732422	1142.836181640625	-2235.69287109375	225.3699493408203	1178.848022460938	-215.2335510253905	511.1832275390625	1335.065063476562	-1189.128540039062	460.82958984375	1361.728393554688	-1126.928100585938	468.9347229003906	1359.271240234375	-1262.154907226562	269.3650207519531	1223.742553710938	-1196.000366210938	150.2205963134766	1101.235595703125	-1204.54296875	128.4821166992188	1076.10546875	-1224.524047851562	119.7753143310547	1069.506713867188	-1175.56005859375	97.88993835449219	1018.629211425781	-1212.075927734375	73.5599365234375	959.3361816406251	-1212.428955078125	37.19062423706055	941.0012817382814	-1227.394287109375	35.72792053222656	937.7434692382814	-1176.687744140625	4.491484642028809	887.3195800781251	-1206.133544921875	-39.02133178710938	793.0954589843751	-1232.106201171875	-38.4454460144043	789.7836303710939	-1180.651000976562	-55.01478958129883	732.6132202148439	-1209.545532226562	126.8283081054688	558.5588989257814	-1487.008056640625	141.2099151611328	480.9617919921876	-1481.34765625	167.5222778320312	516.4934082031251	-1505.40625	206.4320068359375	314.6716918945314	-1588.769165039062	152.4774322509766	264.0937805175782	-1559.020385742188	196.9395294189453	253.8291473388673	-1581.061767578125	109.067497253418	70.1165084838868	-1468.54638671875	314.929931640625	50.18865203857431	-1537.32373046875	239.7993011474609	26.18580627441416	-1619.188354492188	102.1261749267578	553.5585937500001	-932.8258056640625	162.8183441162109	562.9580078125	-881.674072265625	148.3289337158203	521.6240844726562	-905.2359619140625	178.3513946533203	329.5224914550782	-830.02880859375	189.6402587890625	251.9835968017579	-822.1824340820312	154.144775390625	274.9388732910157	-848.626708984375	89.46577453613281	65.12574768066412	-964.7520751953125	280.5822448730469	47.33866500854498	-870.9735107421875	191.8651580810547	38.08686828613286	-799.313720703125	386.930908203125	1066.599243164062	-1202.065673828125	349.7962341308594	923.4385375976564	-1199.126220703125	304.87255859375	1176.881958007812	-1367.05810546875	184.6941070556641	1066.751953125	-1458.15380859375	134.1826019287109	1027.082885742188	-1445.4033203125	163.5886077880859	1010.463073730469	-1483.629028320312	131.6928405761719	943.9797363281251	-1551.299682617188	202.1780395507812	935.4470825195314	-1587.084716796875	175.8954162597656	977.7036743164064	-1577.54443359375	236.9403686523438	1053.581298828125	-1618.490356445312	249.1512908935547	1083.117553710938	-1546.510131835938	316.59130859375	1169.167602539062	-1036.535888671875	199.7548370361328	1061.219116210938	-951.1154174804686	173.3215026855469	1007.941345214844	-922.9360351562499	152.6307830810547	1019.561218261719	-969.5149536132811	170.0949249267578	938.848876953125	-837.8393554687499	172.5497131347656	1018.035522460938	-826.7870483398436	208.9096221923828	983.1002807617188	-817.9419555664061	243.6428985595703	1069.323608398438	-800.2742309570311	265.0253601074219	1100.50390625	-870.7489013671874	
